<?xml version="1.0" encoding="UTF-8"?>
<svg id="Layer_1" data-name="Layer 1" xmlns="http://www.w3.org/2000/svg" viewBox="0 0 1536 1024">
  <defs>
    <style>
      .cls-1 {
        fill: #004526;
      }

      .cls-2 {
        fill: #002d17;
      }

      .cls-3 {
        fill: #cbdca7;
      }

      .cls-4 {
        fill: #002716;
      }

      .cls-5 {
        fill: #00331b;
      }

      .cls-6 {
        fill: #001e11;
      }

      .cls-7 {
        fill: #00311a;
      }

      .cls-8 {
        fill: #c9dba5;
      }

      .cls-9 {
        fill: #dde7b9;
      }

      .cls-10 {
        fill: #00381e;
      }

      .cls-11 {
        fill: #00351d;
      }

      .cls-12 {
        fill: #004224;
      }

      .cls-13 {
        fill: #001c11;
      }

      .cls-14 {
        fill: #00361d;
      }

      .cls-15 {
        fill: #002d18;
      }

      .cls-16 {
        fill: #df9563;
      }

      .cls-17 {
        fill: #002615;
      }

      .cls-18 {
        fill: #012816;
      }

      .cls-19 {
        fill: #13361e;
      }

      .cls-20 {
        fill: #002a17;
      }

      .cls-21 {
        fill: #002414;
      }

      .cls-22 {
        fill: #002715;
      }

      .cls-23 {
        fill: #002916;
      }

      .cls-24 {
        fill: #014526;
      }

      .cls-25 {
        fill: #004425;
      }
    </style>
  </defs>
  <path class="cls-2" d="M0,818V0h1536v478c-.07.86-.45,1.5-1.2,1.86-3.17-.49-19.45-1.91-20.87.28-.3.46,1.06,5.82,1.48,6.01,2.79-1.43,4.88-1.15,6.27.84-1.52-5.23,11.93-7,11.91-1.32,1.54.05,2.15.67,2.41,2.33v8l-.7,1.94c-7,1.54-11.82,6.01-14.46,13.44-3.52,1.34-5.17-1.26-4.94-7.8-7.3-11.66-17.28-22.36-26.36-5.11l-6.41,2.97c6.91,9.78-15.8,19.37-14.52,4.4-6.58.55-8.29-2.16-4.03-7.46-3.33-1.56-2.75-4.66-1.94-7.68-5.25.42-15.33-.38-14.41-7.58,5.04-5.95,4.08-10.64-3.64-5.37-14.36.43-10.32-7.8,1.16-9.15,1.9-2.48,4.43-5.63,6.24-1.6,3.06-2.2,4.38,1.94,2,4l2.28.62c1.84-3.38,4.29-4.1,7.75-2.41,1.24-1.69,1.88-2.51,3.98-1.21-1.03-18-1.48-36.54-1.37-55.62-.13-3.33-2.78-23.47-3.78-24.18-.79-.56-16.91-1.52-17.74-.21l-1.64,12.76c-3.55,3.83-4.26,5.38-4.57,10.79,1.52,6.22.71,8.71-2.41,7.46-1.47,3.27-13.75,3.13-15.5,0-4.6-1.84-3.38-15.27,0-18,.89-1.3.89-2.3,0-3-2.23-27.58-2.89-55.27-1.99-83.06-7.46,1.78-10.62-1.76-9.46-10.6l-.86-3.21-40.12-.18-1.1,3.07c.05,11.65-.1,11.95-11.16,12.64-.88,27.37-1.95,54.79-3.22,82.26-2.25,3.16-16.9,3.03-21.19,2.29l-.86,1.58c1,10.24-3.2,12.08-12.05,10.2-2.82-.07-5.86-1.14-9.11-3.21-4.42-.44-7.72-1.7-9.89-3.79l-1.99-.7.53-34.59c-7.65-2.04-16.12-2.22-24.03-.61-8.32-2.68-12.33-1.36-12.02,3.97.16,11.2-.48,22.32-1.92,33.34l-2.57,1.6c-7.84,4.01-19.26,5.07-28.4,5.88-5.51,1.44-10.38,1.15-14.6-.88l-1.9-1.03c-.26-7.68-1.03-16.28-5.28-22.86l.18-2.11c-2.86-.06-2.73-2.32,0-3,1.84-3.86,1.28-9.28.45-13.51-5.25-26.66-11.16-46.55-25.72-69.12-10.82-16.78-26.58-37.51-48.52-36.63l-2.21-1.74c-1.54-.76-2.57-2.73-3.06-5.91-1.59-.47-27.53,15.53-28.35,16.97-.61,1.05,5.38,7.93,7.19,8.76l.23,2.19c1.48,2.54-5.6,16.43-7.3,17.7l-2.7.3c-13.95,26.82-38.64,44.27-69,47-.07,3.38-10.98,6.89-13,4-.68,3.3-10.41,3.05-11.5,0l-1.12,2c-3.62.57-14.19.95-15.88-2,.59,2.82-5.29,5.63-7.5,4-10.54,3.96-10.55-6.98-6.89-14.82,1.9-4.08,21.58-23.85,25.46-24.96l2.43.78,2.23-.35c11.52,14.19,20.06-2.97,13.56-14.79-5.27-9.58-18.04-1.08-16.95,7.81l-1.84,1.33-.42,2.02c-10.01,8.07-19.32,16.88-27.93,26.41l-2.65.57c-1.34,3.12-3.03,2.1-4.08-.84l.27-61.24c-10.36,2.34-14.32-2.54-11.88-14.64l-.88-3.68c-2.1-1.22-43.1-1.04-45.32.61-.47.35-.72.88-.83,1.44-.19.95-.31,1.89-.23,2.87,2.45,8.74.71,13.34-5.24,13.79-7.34-1.22-13.98-.71-19.9,1.51l-.9,86.99c-.07.86-.35,1.66-.95,2.3-2.27,2.41-18.73,3.27-22.32.42-2.89-2.3-6.28-11.04-2.74-13.04l-2-1.12v-18.47l2-1.41c-10.45.39-20.96,1.36-31.55,2.92l.49,52.9-1.33,2.03c-13.47,1.18-26.97,2.2-40.5,3.06l-1.08,68.41-2.02,1.18c.24,3.45-15,2.16-15.84,1.33-.33-.33-.52-.81-.66-1.33l-.62,2.05c-17.91,2.76-26.02,16.71-24.97,33.93l-1.62.55c-16.44-4.14-28.8,9.72-25.56,25.71-.08,1.94-1.6,2.82-3.47,2.83-26.19-8.75-51.59,13.84-56.46,39.27-60.17,2.33-119.36,14.57-178.24,26.77l-5.56-.11c-3.18,2.71-6.43,3.82-9.75,3.34-15.2,6.09-31.64,9.18-47.69,12.02-3.64,2.62-7.39,3.87-11.26,3.77l-10.32,6.26c-.35,5.12-3.02,9.2-7.79,4.83-2.29,1.53-4.3.43-5.66-1.71l-1.3,11.41c-3.88,1.15-5.23,3.33-4.04,6.54l-1.69,2.69c2.89,3.85,1.35,11.8-4.55,11.89l2.14,4.93c-.39,6.2,4.8,4.83,4.78.13-2.7-13.09,6.64-11.18,5.89.74l9.41-1.64c1.56-3.39,4.27-3.77,8.15-1.14,9.34-3.78,18.48-5.58,27.41-5.43l.25,2.37c-2.56,1.77-5.32,3.17-8.27,4.17-119.66,24.84-227.39,83.07-329.15,149.07,5.01.59,8.21,8.89,3.42,10.75l-.25,2.3c-8.18,6.78-28.5,20.67-18.35-1.43,6.56-22.27-2.88-30.02-21.5-14.48-1.83.25-3.26,0-3.82-1.83-2.15-25.98-20.84-6-24.77,6.87-.37,6.72-4.24,17.77-9.14,7.1-2.69-1.42-4.42-3.26-5.17-5.53Z"/>
  <path class="cls-11" d="M1475,725c.18-.45.4-.87.73-1.16,1.76-1.52,24.39,17.2-2.25,15.16-2.58,4.85-5.58,6.09-9.02,3.74-6.22-10.46-19.59-11.71-24.3.39l-2.17,1.36c.77.1,1.89.3,2,.88.63,3.22.87,14.2-2,15.62l-2.01,1.27c-18.81-14.33-25.72-4.63-33.5,13.49-1.96,2.04-4.46,1.75-5.73-.77-2.08-8.67-6.23-15.8-12.44-21.39-27.08-15.56-24.43,11.24-21.73,30.05.11,9.75-4.85,9.43-14.88-.95-9.43-6.98-15.01-9.36-25.91-2.92-5.26,7.08-9.18,4.71-11.77-7.12-.43-4.09-13.3-12.28-16.02-9.81-2.55,8.91-7.35,9.08-14.4.5-29.18-14.17-29.47,29.14-14.13,43.08,6.2,9.58-1.1,8.88-8.09,5.05-9.71-3.14-15.48-2.62-21.96,5.71-4.73.06-9.35.2-13.84.4-3.75,6.09-6.91,7.38-9.47,3.89-.69-21.71-19.94-27.52-20.1-1.79-1.5,3.05-3.92,2.6-6.13.48-12.66-14.75-34.04-18.24-28.8,7.81,9.16,17.82.61,15.19-11.65,7.81-39.26-8.7-34.83,25.52-9.32,41.18,2.64,2.44,2.4,5.54-1.3,6.53-17.84-1.56-35.21,10.2-27.75,29.89,6.84,8.19,9.4,14.57-4.21,13.68l-2.85.95c-6.99,7.94-9.51,7.94-18.81,2.7-3.54-1.26-7.21-.99-10.72.35-7.21,6.44-11.17,3.66-11.88-8.35-3.75-11.18-8.48-12.47-19.78-10.81-6.35-4.36-10.86-5.85-17.38-.63-2.47.93-3.83-.19-4.11-2.77,2.42-10.92-3.16-24.06-13.87-11.28-2.74,8.79-8.99,15.42-11.8,2.22-7.24-18.57-33.54-16.74-41.81.17-5.26,10.75-.79,20.22,4.08,29.97.49,2.23-.53,4.06-2.83,4.07-11.69-4.37-13.8-1.08-19.17,8.75l-1.61-.16c-16.81-11.39-31.2,1.36-19.24,19.23,14.36,13.57,1.91,12.31-10.07,7.98-17.51-3.37-40.6,9.34-27.31,28.75.63,5.47-4.25,4.69-8.09,3.76-10.55,1.03-21.84,8.53-20.82,20.27l-1.78,1.78H0v-206c1.89.49,5.46,3,6.71,4.28,1.07,1.1.84,4.67,2.78,3.71s2.21-8.33,3.13-10.88c6.01-16.76,26.49-33.49,28.39-5.12,3.99-1.31,6.56-5.23,10.59-6.9,20.38-8.42,18.14,13.22,13.93,25.93-.44,1.33-4.86,6.22-1,6.98,4.14.82,14.52-9.73,18.48-11,4.77-3.75,13.98-5.55,19.5-2.21,17.18,10.42,3.69,37.73-3.22,51.08,14.82-14.19,49.64-25.42,50.56,5.04,26.86-23.07,33.96,13.87,23.34,34.32,16.72-10.43,36.57-10.56,36.27,13.87l10.28-6.98c-5.59-10.69-10.52-44.69-5.07-54.14.31-.53,1.79-.91,2.67-1.06,8.6-1.52,22.95,34.72,24.82,42.11,1.39-15.82,4.48-31.59,9.28-47.29,15.24-37.71,34.4-24.99,23.33,8.38l8.37-13.61c14.1-19.56,21.18-.02,14.53,15.01-5.35,11.84-10.68,23.63-15.98,35.39l21.11-18.29c7.77-6.59,35.43-24.14,44.76-21.1,5.19,1.69-4.27,13.58-6.25,15.98-11.95,12.27-23.76,24.49-35.44,36.68,18.92-9.93,40.55-16.46,57.56.46,114.43-63.67,243.53-114.7,372.32-148.93,102.25-27.17,203.35-42.53,309.03-48.38,139.8-7.74,279.93-3.13,419.76,2.03l10.47,1.64Z"/>
  <path class="cls-12" d="M1536,583v63l-1.71,1.7c-32.23-6.4-19.87,34.04-12.63,50.96-.24,2-1.88,3.65-3.68,2.77-12.56-9.58-24.88-13.55-40.88-11.13-17.18,2.6-8.62,23.76-1.34,32.61l-.77,2.1c-24.5-.75-49.03-1.19-73.54-1.96-136.6-4.26-273.59-7.16-409.97,3.95-200.02,16.29-396.78,77.84-576.17,165.83-17.55,8.61-34.74,18.69-51.82,28.21-3.89-2.2-6.24-5.55-10.51-7.53-19.29-8.94-33.61,1.48-50.99,8.49-1.25-1.34,4.42-7.78,5.48-9.01,8.99-10.46,21.27-19.3,30.48-30.52,1.85-2.25,10.86-13.35,9.02-15.47-15.7,2.33-29.04,10.69-41.45,20.04-8.08,6.08-15.27,13.59-23.04,19.96-1.13.92-1.61,2.43-3.5,1.99-.32-1.75.29-3.11.79-4.7,4.56-14.47,20.56-35.73,18.15-50.74-.48-2.99-2.66-6.56-5.92-5.08-6.02,2.73-14.42,18.52-17.59,24.51-.71,1.34.3,2.56-2.42,2.02-.05-9.23,4.69-18.15,3.98-27.48-.86-11.33-7.09-11.55-13.42-3.45-9.46,12.12-12.59,24.89-15.28,39.72-.76,4.2-2.99,26.8-4.3,28.21-1.64,1.77-1.7-.33-1.97-1.5-1.99-8.77-14.07-38.92-21.49-42.5-1.17-.56-1.85-1.46-3.52-1-2.05,14.53-1.61,30,2.28,44.21.72,2.63,4.64,8.96,3.29,10.83-2.71.05-12.31,8.12-13.06,7.95-2.3-.51-.59-3.84-.79-5.21-2.35-16.54-10.96-19.51-25.99-13.54-4.22,1.67-7.5,4.55-11.74,5.75,3.08-11.49,10.54-28.32,2.54-39.04-4.33-5.79-11.86-5.14-17.47-1.39-1.34.89-6.89,7.72-8.06,6.43,4.46-21.1-13.47-25.24-29.89-18.38-6.47,2.7-11.91,8.33-17.58,11.41-1.21.66-1.91,1.35-3.52.97,2.51-8.3,8.37-16.46,10.72-24.77,1.78-6.31,3.77-18.46-.7-23.75-6.97-8.24-13.27-5.48-21.68-2.76-.56.18-1.27-.74-1.34-.71,1.37-9.27-3.29-10-11-8.01l1.01-1.48c79.74-49.83,162.62-99.84,252.45-129.55,30.06-9.94,60.9-17.08,91.54-24.96.39-2.85,5.87-3.67,7-1,.02-1.03,1.02-1.37,3-1l1.26-1.97c23.36-3.57,46.63-7.91,69.8-13l.94.96c5.43-1.97,10.93-3.76,16.61-4.84,55.78-10.56,114.69-16.26,171.28-21.71,34.11-3.29,72.13-6.42,103.78-7.6l2.33,1.15c.65-1.84,1.68-1.87,2.99-.6,8.93,10.2,19.32,18.7,31.16,25.51l.85,3.09-1.63,1.84c-34.91.19-70.39,4.81-105.65,10.49l12.68,1.66c122.36,3.67,248.15,5.9,371.91,7.07,79.17.75,157.34-.67,235.66-3.57,9.09-.34,63.41-4.71,64.78-11.36s-64.61-10.15-72.09-9.81c-1.43-.43-2.65-1.21-3.66-2.33l1.23-3.58c16.31-12.13,27.66-28.45,35.36-46.61l2.41-.82c3.45-2.51,7.7-3.51,12.76-2.98,47.13-.17,96.25-.25,143.33.02,4.53-.5,8.17.49,10.91,2.96Z"/>
  <path class="cls-15" d="M1536,646v378h-693c-2.39-13.76,10.25-22.9,22.55-24.04,1.78-.16,5.97,2.07,6.45-.48.15-.78-5.4-9.2-4.72-14.87.36-2.99,8.01-12.25,10.77-14.06s14.97-3.62,18.46-3.63c6.57-.02,13.05,3.63,19.49,4.07,1.28-1.16-5.5-6.7-6.41-8.08-.47-.71-4.44-8.93-4.54-9.46-3.34-17.58,14.28-22.39,26.43-12.45,4.52-12.66,7.9-13.03,20.52-9.01,1.44-1.44-5.25-12.18-5.77-14.72-1.36-6.64-.6-15.59,3.34-21.21,13.27-18.94,42.67-14.72,45.44,8.94,5.23.31,4.12-6.64,8.03-10.47,13.07-12.79,19.17,3.36,15.97,15.46,4.06-1.02,4.78-3.78,9.45-4.08,7.27-.47,8.16,3.81,11.06,4.09,5.15.51,9.27-3.42,15.44,2.54,5.78,5.58,5.84,11.06,7.06,17.94.95,5.33,4.56-.08,7.7-1.28,12.09-4.6,17.67,4.33,22.35,3.4,2.57-.52,3.52-6.38,10.52-7.52,2-.33,7.94.69,8.42-1.61.36-1.74-4.69-6.88-5.74-9.24-3.55-7.89-2.14-18.75,4.08-24.91.9-.89,11.28-6.88,12.37-7.12,4.45-1,9.72.78,14.29-1.22,1.34-1.9-8.43-7.91-9.99-9.5-7.19-7.37-15.5-19.92-10.21-30.19,5.41-10.51,21.8-10.31,31.44-7.04,1.94.66,10.85,6.73,11.76,5.73.84-4.88-3.48-7.95-4.02-12.47-.6-4.98-1.15-16.1,3.31-18.75,6.92-4.11,15.38-1.16,21.47,2.91,1.52,1.02,9.06,9.55,10.25,8.3.51-9.33,1.64-21.7,14.3-18.78,5.89,1.36,10.24,15.07,9.71,20.78,1.32,1.56,5.26-5.73,7.01-6.47,4.58-1.94,8.68,1.27,13.06.07,2.88-.79,3.48-6.24,9.66-7.36,8.92-1.62,14.48,1.3,22.26,4.76,1.54-1.66-7.48-12.39-8.68-14.81-8.11-16.36-5.01-46.06,19.73-38.73,4.11,1.22,8.82,8.2,11.44,8.57,2.3.33,2.21-6.2,4.95-7.09,3.62-2.58,14.43,4.68,16.57,7.56,3.07,4.14,3.02,9.33,5.55,13.5,2.9.23,3.51-2.83,5.06-3.82,16.93-10.8,26.36,1.84,38.87,11.84,4.25-12.41-5.77-27.81,3.16-39.76,3.01-4.03,11.13-3.32,15.74-2.14,6.02,1.55,11.81,7.81,15,12.99,1.68,2.74,5.02,13.44,5.62,13.89,1.27.95,2.21-.87,2.75-1.73,4.21-6.69,5.34-17.18,15.44-19.6,8.87-2.13,13.48,4.17,20.79,7.34v-16.5c0-5.75,7.22-11.98,12.78-12.3,1.46-.08,8.22,2.15,9.59,2.92,2.87,1.63,4.56,6.91,7.13,6.92,2.8,0,3.07-4.05,5.19-4.84,2.25-.84,11.55-.45,12.31-1.21.32-.32-2.15-4.41-2.32-4.62-1.05-1.3-6.32-6.12-7.68-6.38-7.05-7.12-15.36-27.49-4.91-34.41,6.99-4.63,26.77-2.91,34.6.22,2.05.82,14.7,9.84,15.3,9.19-4.51-14.17-14.52-34.78-5.24-48.74,5.22-7.85,12.99-6.95,21.24-5.26Z"/>
  <path class="cls-5" d="M1452,467c-3.38-.78-3.35,2.25-5.27,3.31-2.3,1.28-6.04,1.36-8.47,2.45-4.39,1.96,3.09,3.41,5.2,3.22s6.6-5.42,9.31-.77c2.42,4.15-2.47,7.26-2.67,8.42-.85,4.95,8.59,5.03,11.89,5.37v-3.5c5.93-1.22,1.3,7.56,2.07,9.87.49,1.46,2.99,1.35,3,2.17.03,2.35-3.32,3.98-3.06,6.45l6.04-.54c1.79,1.24-1.64,7.02,3.67,8.41,2.2.57,9.35-4.11,9.31-6.35-.02-1.29-3.15-4.28-2.02-5.5.29-.32,6.51-2.25,7.94-3.57,1.27-1.18,1.26-3.17,2.49-4.51,4.04-4.42,10.07-6.5,15.26-2.61.77.58,1.21,2.3,2.26,3.21,6.11,5.27,10.52,8.24,9.06,17.47,2.39.56,1.62-.42,2.23-1.3,1.17-1.69,3.02-6.43,4.03-7.43,1.67-1.66,9.04-5.83,11.74-5.26v87c-13.36-1.94-27.03-.67-40.54-.96-25.57-.55-51.22-.42-76.92,0-16.49.27-33.24-1.06-49.54.96l-1.67-1.49c1.39-6.08,2.08-12.36,2.6-18.58l2.07-.94c2.42-2.95,3.21-6.8,2.37-11.54.66-3.26,8.47-18.86,10.55-20.6,4-3.35,13.59-3.9,18.7-3.4-6.51-10.42-14.52-24.62,5.38-24.98-15.33-16.76,2.85-24.69,17.98-23.32-5.67-10.7-1.06-21.21,11.35-22.31,6-.53,18.09,4.7,13.67,11.15Z"/>
  <path class="cls-15" d="M1536,478v10l-5.02-.52,1.01-3.48-8.99,1c1.56,4.13,1.53,8.16-4,7.99,3.35-10.49-2.14-3.41-4.88-5.12-.84-.52-2.84-7.31-1.96-8.72,2.3-3.7,19.36-1.74,23.84-1.15Z"/>
  <path class="cls-6" d="M998,314c2.71-.92,5.06,4.17,3,6-1.21,1.06-2.78,1.44-4.04,2.46-3.95,3.19-20.65,19.15-22.17,22.84-.71,1.74-2.59,10.82-1.74,11.66.26.25,5.68.83,6.94,2.05.67.47,1.23,1.15,1.11,1.99-1.85,12.37-.88,17.05,13.28,18.84-5.83-13.72,10.03-15.38,15.61-5.83,5.29,5.13.8,11.38-5,13l-1.38,2.07c-35.15,8.22-38.31,41.61-15.14,65.63l-.49,2.3,3.98,4.78,11.51,28.95c4.04-3.27,8.34-5.71,12.91-7.32,1.37-8.47,7.08-14.5,15.6-15.41.02-.79.16-1.96.72-2.07,6.35-1.26,24.41-3.1,30.64-2.79l1.64,1.86,2.83,1.48c10.29,24.27,22.86,47.04,37.73,68.29l.44,2.23c1.53,1.27,2.52,3.49,2.97,6.66,3.52.64,6.19,1.75,8.03,3.34,1.7,3.02,0,6.17-5.07,9.43-7.18,3.68-32.88,24.33-13.96,28.04,6.96,1.37,27.48-10.77,32.81-16.08,25.93.16,18.61-14.33,9.21-29.79l1.01-2.61c-.86.29-1.62.18-2.26-.41-.79-5.61-1.48-8.44-5.74-11.59-3.5-2.9-4.96-8.87-3-13,.04-1.41-.29-2.74-1-4-.57.67-1.36,1.18-2.19.9-1.96-.67-12.57-28.13-11.63-29.41.49-.66.98-1.23,1.82-1.48.22-1.15-.29-2.05-1-3-1.97,1-3.06.39-3.88-1.55-1.71-7.02-4.46-12.99-8.25-17.9-5.78-.44-8.07-2.29-6.87-5.55.35-.86,1.02-1.53,2-2l2.27-1.38c6.49,3.03,13.64,3.57,21.47,1.62l2.27,1.75c1.36,1.82,2.69,1.82,4,0l3.29-2.54c4.1-1.23,23.35-5.94,25.6-5.34.73.19,1.42.52,2.1.88,2.59,1.77,3.59,1.77,3,0,4.13-4.16,12.4-6.58,18-5,10.13,9.53-2.42,15.87-11.96,15l-4.02,3.41c5.27.77,13.65,5,6.69,9.48-6.17-1.8-14.09,1.44-19.71,4.11-.66,2.85-5.99,3.97-7,1-1.35-.25-2.09-1.24-2.22-2.99-5.49,1.15-10.15.98-15.69-.31,3.41,2.94,3.45,6.67.12,11.2,1.03.79,1.71,1.58,1.79,3.1l2.05.93c3.31,6.78,10.04,10.08,20.2,9.92l1.75,2.15c1.66,1.56,3.33,1.56,5,0,.31-1.9,1.1-1.78,2,0,.67.69,1.33.69,2,0l.72-2.1c9.59-1.48,30.14-8.96,21.59-21.56l.69-2.33c1.43-2.23,2.89-1.74,4.77-.41,2.56-1.6,6.32-2.07,8.23.41,2.62-1.48,6.31,4,4,6l1.96,1.28c5.29,1.32,2.6,6.99-2.36,8.46.53,1.05.54,2.19.11,3.29-7.29,8.76-12.91,18.15-18.71,27.97.37,2.66-1.57,4.21-5.81,4.66-8.33-.18-12.22,2.04-17.17,8.64l25.24-2.24c5.56-19.2,17.1-35.22,31.33-48.48.75-1.64,1.55-3.16,2.4-4.57,1.1-2.58,2.83-1.48,4.4.32l9.89,17.84c4.37,9.42,12.16,6.72,12.65-3l2.06-1.15c-.83-4.09-3.73-11.77-7-13-2.94.81-4.49-1.28-3-4,.25-1.85.92-3.19,2-4,.33-.7.69-1.38,1.15-1.98,2.62-3.37,17.01-6.57,22.07-7.51,47.85-8.86,88.93,21.26,106.29,63.76l-1.51,1.73,2.61,1.72c2.32,5.02,5.26,33.11,2.78,37.17-.29.48-.81.81-1.4,1.11-.31,5.24-1.59,16.25-3,21-1.19,4.01-7.43,15.55-9.83,19.67-7.74,13.28-17.38,21.79-29.17,31.33-.28.75-.6,1.48-1.03,2.13-5.95,9.03-41.45,15.1-52.86,14.89s-44.82-7.19-50.22-16.8c-.39-.69-.65-1.44-.89-2.22-7.86-1.56-13.9-8.52-19.03-14.51-6.38-7.45-12.58-16.66-15.33-25.98-42.67,6.41-85.27,12.39-127.89,11.47-10.67-.23-21.49-.68-31.73-3.52l-1.03-2.45c-6.62,1.68-15.1-5.98-19.91-10.75-19.56-19.35-31-54.57-19.13-80.41-9-19.09-16.76-38.64-23.27-58.65l-19.09,1.68-1.6-1.87c-.27-1.73-.16-3.43.37-5.1,7.6-14.62,15.08-29.31,21.01-44.7,1.1-2.85,5.45-14.23,5.06-15.3-2.31-6.3-20.17,25.77-20.49,28.81-16.5,37.84-34.28,75.03-53.79,112.33-.93,1.79-2.1,3.46-3.29,5.12s-2.52,3.27-3.87,4.84l1.25,1.91c-4.75,6.61-7.79,11.17-4.8,19.57-4.04,29.23-45.26,11.82-27.21-12.01,9.18-5.27,12.55-12.58,16.48-22.11l2.28-.36-.41-2.17c1.96-2.97,14.63-23.88,13.83-25.06-1.89-2.79-24.48-4.23-28.14-3.91-60.08,5.17-81.68,84.66-29.73,116.94l1.45,3.21,7.61,1.59c22.41,10.17,44.31,4.69,65.39-5.59l1.05-3.4c27.86-23.36,31.5-67.44,4.81-93.11l-.85-3.49c.53-7.18,6.07-15.84,12-20l3.29-.13c19.69,15.17,31.58,38.33,36.46,62.2l-1.76,1.93c.93.5,1.8,1.17,2.2,2.18,2.78,7.05-6.04,43.03-11.31,48.75-.73.79-1.89.96-2.89,1.08.51,1.03.61,2.09.39,3.2-1.33,6.86-27.15,31.74-36.39,31.8-5.99,7.7-19.84,11.35-29.64,13.2-17.07,3.21-31.68.66-48.28-3.15-3-.69-10.33-3.33-11.08-6.04-6.22-4.76-13.42-7.94-19.47-13.03-3.1-2.61-13.3-14.95-15.53-14.97l-2.68-1.31c-28.73-42.97-22.15-100.88,18.91-133.83,6.9-5.54,17.17-13.4,25.78-12.86,1.28-1.18,3.08-1.26,5.41-.23,23.03-1.75,41.95-3.04,65.32,4.43.83.27,1.55.58,2.01,1.37.64-4.99,3.53-12.43,8.26-14.57.07-1.3.18-2.6.42-3.88,1.3-6.92,15.44-38.22,19.81-43.37.84-.99,1.79-1.89,2.77-2.76l-.55-3.43c4.71-8.27,8.94-16.77,12.69-25.5l2.86-2.07c.2-1.39.2-2.73,0-4-2.87-.48-2.75-3.21,0-4-3.13-6.11.97-11.21,8.29-10.97l2.33-11.4,2.38-.63c3.06-6.49,20.63-20.68,26.98-26.52,1.23-1.13,2.06-2.5,4.02-2.48Z"/>
  <path class="cls-11" d="M463,600c36.87-8.37,74.18-16.52,111.67-21.83,23.62-3.35,47.41-5.84,71.29-6.21,1.75-21.95,25.6-42.95,47.56-42.02,4.07.17,7.32,2.63,11.49,2.07-4.25-17.18,10.04-33.68,28-28.01-3.1-12.2,3.65-26.15,14.97-31.53,2.45-1.17,9.2-3.46,11.54-3.46h16.5l1.13-71.86,41.81-2.19-.51-55.02c.84-1.18,21.67-2.79,25.02-2.97,1.6-.08,8.55-.42,8.55,1.54v21c0,1.37,1.89,10.13,3.03,10.97.36.27,6.78,2.56,7.46,2.61,4.07.27,9-3.09,13.52-2.08l.88-88.61c3.26-6.92,21.32-1.13,25.17-3.83,2.85-2-2.36-12.29,1.42-16.58,3.24-3.68,40.44-1.51,47.49-1.5,4.53,2.58.88,15.32,2.46,17.59,1.35,1.94,8.98.52,11.57.93.49,20.14-.68,40.41,0,60.55.06,1.92-1.02,4.01,2,3.45-1.57,3.33-2.63,13.36-3.14,13.86-.62.62-6.46.48-7.65,1.34-.33.24-1.97,6.57-2.21,7.8-1.03,3.05-3.25,1.98-4.13-.84-1-11.52-8.18-13.96-18.45-14.85-3.77-.33-7.18-.33-9.42,1.7,1.64,2.46-.45,4.42-3,3-7.82,12.78-8.47,32.06,1,44,.33-.81.67-.81,1,0,4.51,1.52,8.14,2.48,13.26,1.81,2.95.25,5.99.84,4.74,4.19-7.89,16.56-14.82,33.55-23,50l-2.17,1.78c-24.81-8.55-57.21-12.85-79.76,2.11,1.95,1.93,2.27,3.63.94,5.1-50.18,20.4-73.91,77.51-52.49,127.99,3.03,7.14,7.86,12.85,10.49,20.01-3.21,1.96-7.67.76-11.49,1.01-94.19,6.14-189.51,15.84-282.51,31.99-2.44-1.05-5.62-.76-9.54.85-5.24,1.68-9.8,1.77-13.68.27-6.09,3.5-14.6,7.93-16.36-2.11-5.01,5.85-11.45.9-7.95-5.54-14.74,1.94-18.65-10.49-.68-6.8l-.61-2.41c-14.39,2-10.71-7.32.56-8.33l1.09-4.94c-7.44-6.16-7.46-12.28,4.13-12.79,1.34.38,5.14-1.87,7.04-3.22Z"/>
  <path class="cls-14" d="M1319,413c2.46-3.97,6.75.67,9.08-2.41s-.87-9.22,2.92-11.13c2.33-1.17,4.22.58,6.39.45s13.68-1.14,14.17-1.85l2.5-80.51c-.05-5.65,10.12-2.73,10.94-3.55.57-.57-1.15-14.76,3.49-15.01l40.88.14c3.28,1.11,2.12,13.36,2.63,13.87.37.37,7.43-.28,9.01-.01-.16,28.32.19,56.69,0,85.01,1.92.87,1.86,2.03,0,3-.09,6.17-1.73,12,0,18h15.5c2.33,0,.31-5.74.41-7.49s.6-5.54,1.12-6.99c.95-2.67,2.6-2.19,3.31-3.75,1.57-3.46,1.08-12.19,2.12-13.81,2.62-4.06,17.05.2,21.55-.96.03,1.73-.29,3.57.23,5.27,5.77,18.74,2.97,43.9,3.72,64.28.14,3.63,1.62,7.05,1.1,11.01-.33,2.57-1.41,1.05-2.06,1.44-5.7-1.21-10.08.23-13.16,4.32l-.84-1.32c-.46-3.74-1.54-3-2-4-1.24-2.72-.31-3.99-4.05-6.45-6.22-4.1-12.09-3.53-17.91.99-8.38,6.52,0,11.51-1.04,19.46-7.15-1.54-20.63-1.18-23.49,7.07-2.57,7.4,6.19,9.59,6.49,15.93-2.65-1.31-9.74.09-11.96,1.54-6.37,4.18,5.48,18.36,6.96,23.46-8.1-1.33-13.24-1.05-20.76,2.24-2.33,6.01-8.36,12.44-9.78,18.75-.72,3.21,2.03,12.78-4.45,12.02.71-11.91-.28-28.64-4-40l1.64-1.99c4.25.4,8.36.02,12.34-1.14-4.82-12.87-10.04-25.64-15.67-38.31l1.69-1.57c-1.79-1.53-2.91-5.77,0-7,.28-.87.62-.86,1,0,6.47-6.55,6.1-12.49,1.93-19.86-1.45-2.57-4.58-6.84-5.93-6.14l-.95,2.12c-8.02-1.16-15.33-.61-21.95,1.65l-2.1-.77-3.67-.13-20.61-11.57-1.73-3.3-.25-2.32c5.49-4.03,10.66-10.1,4.76-16.29l.5-2.39Z"/>
  <path class="cls-1" d="M1132,264c31.28-5.05,57.66,42.68,67.69,66.81,6.1,14.69,10.29,30.75,11.3,46.7.19,2.98,1.01,7.51-2.99,7.49-.97.84-1.96,1.53-3.03,1.71-23.45,3.78-49.02,7.84-72.65,7.26-2.31-.06-5.34-.7-6.31-2.97l-1.97-1.07c-1.91-9.19-3.18-18.42-3.8-27.66l2.36-4.5c9.1-10.54,15.32-22.39,18.68-35.53-8.62,16.48-28.97,48.37-46.19,55.97-13.37,5.9-54.48,6.52-69.28,3.83-4.39-.8-13.8-2.67-9.8-8.04-.92-.17-1.98-.69-1.93-1.5.36-5.84.66-11.49.52-16.93l1.41-.57c1.3-.1,10.67-3.3,13-4,16.2-2.66,32.36-5.27,48.5-7.83,6.36-13.33,13.19-26.38,20.5-39.17,4.42-5.59,6.46-13.1,10-18l-.76-2.14c6.04-5.5,11.74-11.34,17.09-17.5,2.82-3.24,5.38-4.02,7.67-2.35Z"/>
  <path class="cls-21" d="M1208,388c4.91,1.2,7.75,21.34,7,26,.8.21,1.83.85,1.63,1.38-5.92,15.54-18.39,19.76-33.5,23.11l-2.12-1.49c-5.88,1.67-12.09,3.6-18,5,.22,2.27-2.08,1.57-3,0-10.12,2.33-20.74,5.59-31,7-.39,2.49-3.03,2.24-4,0-5.75.62-11.57,1.66-17.5,1-3.69-.41-6.07-2.54-8.5-3-1.31.53-1.98,1.19-2,2,2.56,4.13,4.19,2.27,7.74,3.76,6.49,2.74,6.32,18.16,11.26,21.24,1.73.23,1.48,1.52,1,3-.15,2.6,7.98,24.65,9.71,27.72.59,1.05,1.28,1.68,2.29,2.28,1.59.56,1.41,2.52,1,4,1.13,4.26,2.26,8.64,3,13,.27.4.5.81.59,1.25.32,1.56-22.25,11.35-25.65,12.6l-1.94-.85c-2.71-.42-4.4-3.63-5.81-5.69-11.46-16.8-27.18-47.7-35.19-66.31-3.97-.87-6.4-10.61-7.4-14.88-4.11-17.57,1.12-24.05,14.82-34.86l2.58.73c.31-.89.64-.89,1,0,40.96-18.18,87.8-24.31,131.31-29.43l.69,1.43Z"/>
  <path class="cls-1" d="M1056,221c-2.33.07-4.68-.04-7,0-.96-10.68,7.14-23.77,14.99-30.52,23.15-19.9,65.02-14.43,75.79,16.24,8.35,23.78-.4,35.34-18.84,48.71-11.26,8.16-39,24.5-52.59,24.53-5.08.01-15.02-16.94-16.13-21.71-.86-3.67,1.39-4,4.78-5.25l.79-2.4,20-6.67c13.31-2.57,31.5-29.96,5.76-24.53l-25.08,3.47-2.48-1.88Z"/>
  <path class="cls-13" d="M1300,406c6.73.37,14,2.01,19,7,8.48,8.47,2.72,15.22-5,21l-.48,2.15-78.52,17.24c1.66,3.56,3.64,7.38,5.94,11.47l-.94,1.14c.57,1.84.39,4.94-2,4l-1.34.33c-7.21-15.64-13.33-17.51-18.36-5.59-4.23,3.19-5.77-1.66-6.78-5.11-1.76-2.09-11.27,4.24-11.59,7.37l-1.93,1c-3.99,1.89-6.08-2.32-6.51,3.01-2.99-1.42-2.86-2.59-6.49-3.01l-1.88,1.83c-9.7-.61-19.48.15-29.15,1l-1.97-1.82c-.58-4.18.51-2.32,2.35-3.11,1.96-.84,11.54-3.77,13.2-3.88,1.3-.09,4.14,1.33,4.44.98,2.88-3.24-6.95-6.41-9.49-4.99-2.26-4.56,5.41-4.7,5.51-9,2.54-.82,1.72,1.39,2.16,1.76.51.43,11.52-3.41,12.37-4.76,1.5-2.38-2.51-5.86-1.56-9.01,9.74-2.77,22.09-4.72,28.44-13.06.87-1.15,5.39-8.9,5.56-9.94,14.38-.3,28.71-3.51,43-5l2.25-2.25c12.42-1.69,24.89-2.64,37.4-2.84l2.35,2.09Z"/>
  <path class="cls-7" d="M463,600c.73,2.96-2.44,1.55-3.51,3.01-.64.87-.32,2.76-.53,2.97-1.18,1.15-4.91-2.1-6.31-1.83-.62.12-4.46,3.86-4.64,4.37-.66,1.97,1.53,1.33,2.44,2.52.73.96.43,2.83.56,2.96.34.36,8.34-4.73,5.97.48-.51,1.13-2.85,1.5-3.46,2.54-1.02,1.74,0,4.54-1.92,6.08-1.11.9-11.36.88-8.6,3.89,1.8,1.95,8.65-.31,8.99,0,.2.19,1.04,4.99.94,5.38-.83,3.16-9.11-.54-11.94.63v2.99c2.94-.42,5.68.43,8.52.77,1.11.13,4.76-1.81,4.36,1.57-.21,1.74-2.93,2.66-.95,5.19,2.61,3.34,3.31-.07,5.08-1.03,4.4-2.39,2.75,2.46,4.48,4.51,3.31,3.91,10.3-2.45,13.22-2.82,1.39-.18,2.22,1.75,3.62,1.65,2.56-.18,6.64-.76,9.95-1.04,1.75-.15,9.84-4.68,9.72.2-16.64,2.89-58.39,14.74-72,14l-3,1c-2.63.62-4.24.9-7,1-.18,0-1.53-1.11-3.43-1.11-8.01-.01-17.07,5.37-24.15,6.15-2.29.25-3.75-2.34-4.9-2.05-.9.23-.92,2.5-2.28,2.99-1.02.37-12.76,2.48-13.23,2.02.63-3.05.9-4.6.15-7.65-.44-1.78.64-2.81-2.15-2.34,1.31,8.23,2.62,13.83-8,12.99,2.2-5.41-2.03-8.06-3-12.99,2.13.06,4.64.37,6.13-1.45.29-.36,1.06-6.25.84-6.49-1.3-1.42-9.21-.47-6.97-6.06,10.88,5,6.08-.04,7.05-3.39.5-1.74,3.64-1.43,4.53-2.59.47-.62-.58-10.81,2.4-13.54s1.46,4.12,4.5,3.51c1.7-.34,3.71-8.62,6.51-5.99,1.09,1.02-3.44,4.79-3,6.49,4.75,2.77,2.82-3.94,4.65-5.58.48-.43,10.47-6.51,11.1-6.67,1.98-.52,4.01.15,5.56-.21.55-.13,1.95-3.14,7.32-3.9,17.54-2.46,38.09-8.97,56.38-13.12Z"/>
  <path class="cls-14" d="M1300,406c-12.04-.66-29.59,1.71-42,3,4.19-12.3.48-25.78,3.04-38.46,1.27-6.28,9.06-2.45,13.46-2.45,2.86,0,5.49-1.23,8-1.19s17.22.85,18.07,2.03l-.57,37.07Z"/>
  <path class="cls-6" d="M1057,253l-1-32c11.52-.36,25.84-4.44,36.51-4.1,7.5.24,6.4,7.9,4.23,13.34-5.9,14.79-27.07,18.11-39.74,22.76Z"/>
  <path class="cls-16" d="M1016,355c-.56,3.93.99,7.63,1.09,11.49.07,2.68-1.24,5.34-1.09,7.51-.54,2.85-5.75,3.08-6,0-4.25-.58-9.48-7.05-13.76-2.76s5.12,11.51-3.46,10.55c-6.06-.68-13.19-3.96-14.54-10.51-.67-3.25-.32-9.65,1.77-12.27.66-.83,6.73-4,7.5-4h17c2.65,0,9.64.14,11.5,0Z"/>
  <path class="cls-13" d="M1208,385v3c-3.37-.82-23.45,2.38-28.26,3.24-25.04,4.48-50.6,8.48-74.95,16.05-9.52,2.96-19.49,7.89-28.79,8.71l1.91-3.5c3.21-2.67,43.89-23.89,46.36-23.11.78.25,1.29.96,1.73,1.61,2.5-.26,4.92,1.03,7.46,1.04,25.06.13,49.85-3.03,74.54-7.04Z"/>
  <path class="cls-13" d="M1029,351c11.3-3.41,31.15-9.41,40.33-16.17,8.6-6.33,21.84-22.18,28.67-30.83-5.18,13.82-12.04,27.38-19.05,40.45-1.4.84-2.96,1.18-4.54,1.46-11.54,2-27.24,3.99-38.94,5.08-2.15.2-4.32-.06-6.47.02Z"/>
  <path class="cls-25" d="M1001,320c-.64-.91-2.85-5.15-3-6-2.24-12.56,14.68-21.56,20.56-10.06,2.92,5.72,3.71,12.8.27,18.39-5.31,8.64-13.12,4.34-17.83-2.33Z"/>
  <path class="cls-16" d="M1132,264c-5.3.86-12.4,10.6-15.96,14.54-1.72,1.91-7.05,6.09-8.04,7.46-2.98-.31-10.89-9.93-9.56-12.02,4.73-2.53,27.51-18.85,30.9-17.9,2.36.66,2.97,5.68,2.66,7.91Z"/>
  <path class="cls-5" d="M1468,468c-2.87,1.74-1.79,3.78-2.01,4-1.02,1.04-4.31-3.6-7.7-.68-2.7,2.33-3.5,6.12-4.3-.32,3.38.46,1.33-3.78,4.69-4.81,2.08-.64,8.3-1.07,9.31,1.81Z"/>
  <path class="cls-7" d="M354.99,648.99l2,7c-3.26.65-6.31-7.8-2-7Z"/>
  <path class="cls-15" d="M1421,398c4.66-.8,3.78,2.54,0,3,.01-1,0-2,0-3Z"/>
  <rect class="cls-5" x="1470.01" y="498.01" width="1.99" height="2.99"/>
  <path class="cls-7" d="M1013.85,818.86c.7-.42.89-3.75,4.87-4.65,14.33-3.23,10.42,12.32-4.26,12.83-1.92.07-3.69-1-5.07-.95-3.74.14-12.68,3.23-14.2-1.8-2.22-7.37,5.6-9.35,11.27-8.25,2.26.44,5.29,4.06,7.39,2.81Z"/>
  <path class="cls-7" d="M1330,634c20.85,2.04,44.72.72,65.03,5.47,4.95,1.16,19.14,5.03,9.23,10.3-12.92,6.87-56.64,9.42-72.72,10.28-133.69,7.1-274.79,1.67-409-.08-42.13-.55-84.02-.76-126-2-27.49-.81-55.59.84-82.53-4.97.84-1.47,5.11-2.35,6.77-2.71,13.93-3.06,31.4-4.85,45.73-6.27,14.85-1.47,48.31-5.64,61.49-4.01,4.12.51,8.69,3.43,12.99,4.51,28.17,7.05,50.43,5.71,76.01-8.51l6.76-2.09c98.61-1.28,197.19-2.56,295.74-3.84l5.5,1.93c32.81,22.81,70.92,21.94,105,2Z"/>
  <path class="cls-2" d="M427,659c-.84,1.06-1.99.76-3,1-.48-3.98,1.88-1.06,3-1Z"/>
  <rect class="cls-2" x="1432.01" y="476.01" width="3.99" height="1.99"/>
  <path class="cls-25" d="M1030,597c19.58,7.16,74.98,3.01,97.49.99,21.34-1.91,42.55-6.08,63.9-8.06,7.58,17.34,18.12,31.3,33.61,42.06l-308,4c13.61-7.57,28.12-21.5,36-35,3.31-1.49,7.27-1.92,11.87-1.28,21.72-1.96,43.43-2.86,65.13-2.72Z"/>
  <path class="cls-10" d="M837,609c-62.09-35.81-29.41-129.85,42.39-121.89,5.45.6,11.02,3.75,16.61,3.9,1.37,1.36-12.41,24.33-14.17,27.37-.53.91-1.68,1.37-1.83,1.63l-2.36,1.68c-32.4-4.5-51.33,38.36-24.76,58.34,32.1,24.13,67.37-16.68,45.58-47.14l1.53-1.88c-.57-.49-1.3-1.25-1.05-1.76,3.25-6.66,9.52-17.79,13.6-23.95l2.45-.29c30.71,26.7,26.8,75.71-5,100l-6.83,2.38c-19.71,1.09-39.42,2.16-59.13,3.22l-7.04-1.59Z"/>
  <path class="cls-24" d="M1005,387c.48-.51.99-.99,1.57-1.34,10.72-6.45,57.02,18.62,67.06,27.03l1.37,3.31c-1.44.44-9.52,7.82-10.97,9.53-5.27,6.21-6.88,10.35-5.77,18.71.61,4.56,4.8,16.25,6.74,20.76l-33,3c-8.34,2.22-20.58.82-29.06-1.46-6.32-1.69-11.85-3.24-14.94-9.54-6.92-6.23-15.78-23.44-16.91-32.59-2.12-17.1,17-37.15,33.91-37.41Z"/>
  <path class="cls-14" d="M947,447l21.93-1.92c6.37,20.8,15.51,40.63,23.91,60.66-14.4,30.26,5.83,79.81,37.16,91.27.56,3.02-1.53,1.94-3.45,2-13.66.46-27.45.36-41.09.96-10.71.47-21.86,3.12-32.46,1.04,8.03-13.75,13.79-36.14,12-52l1.73-1.78c10.02,3.76,11.55.28,10.25-9.45-3.35-25.06-20.08-49.07-38.61-65.78l-1.37-3.99c-.01-6.64,4.5-17.2,10-21Z"/>
  <path class="cls-10" d="M1334,584l-2.57,1.81c-4.51.88-17.2,1.32-22.24,1.28-2.89-.02-8.48-.19-9.19-3.09l-.33-2.61c30.12-24.38,5.67-70.11-31.17-61.95l-2.5-1.44c-3.37-6.14-7.97-16.98-11.55-21.99-.5-.7-1-.69-1.45-1.01-1.58-.09-1.67-2.66,0-3,23.95-6.19,40.28-8.97,61.33,7.17,27.18,20.85,36.13,53.94,19.67,84.83Z"/>
  <path class="cls-23" d="M1340,449l2.34-.73c11.83,8.56,20.39,18.8,25.66,30.73,1.94,9.81,16.8,33.67,16.02,41.48-5.1,2.02-10.64,1.52-16.02,1.52-1.85-5.65-8.46-17.35-11.97-22.53-26.4-38.97-72.44-53.56-116.03-33.47-.59-1.89-9.47-12.44-8-13.99l82-18.01c8.45,5,18.09,9.17,26,15Z"/>
  <path class="cls-7" d="M1126,391c-2.88.3-27.5,12.2-32.03,14.47-6.18,3.1-12.06,6.98-17.97,10.53-.35.03-.74-.08-1,0-20.51-13.63-44.31-29.4-70-29-.27-3.13,4.03-3.14,4.81-5.68.66-2.16-.02-5.02.19-7.32,1.86.25,4.07-.18,6,0,.21,3.18,3.47,4.62,6.18,5.32,13.43,3.41,61.01,2.64,73.19-3.44,1.44-.72,2.39-1.4,3.65-2.35,7.86-5.99,23.76-24.21,29.39-32.61,6.03-8.99,9.91-19.34,16.58-27.91-1.17,8.56-3.5,18.41-7.27,26.22-2.57,5.33-14.94,20.47-15.56,23.52-1.22,6.09,4.35,21.1,3.84,28.26Z"/>
  <path class="cls-22" d="M880,520c-2.5,4.32-4.57,11.81-8.14,16.36s-10.73,6.29-12.39,12.61c-4.98,18.99,19.15,25.35,25.92,10.93,2.92-6.21-1.1-9.61,0-14.94.83-4.02,4.93-8.52,6.62-11.96l2.39-.25c.74-3.29,4.52-5.79,5.61-1.75.95,4.16,4.46,7.76,5.67,11.83,8.63,29.01-20.2,56.72-47.71,42.71-36.7-18.68-17.63-72.24,22.04-65.54Z"/>
  <path class="cls-25" d="M1300,584c1.46-.22,6.97,1.2,9.52,1.09,7.98-.35,16.23-1.94,24.48-1.09-14.84,27.85-48.1,41.42-77.98,29.48-9.81-3.92-27.94-17.17-31.02-27.48.34-.58.7-1.04,1.13-1.12,8.84-1.63,25.91-4.06,34.68-2.02,13.47,6.69,24.34,6.12,37.56-.57l1.62,1.72Z"/>
  <path class="cls-18" d="M1300,584c-5.83.89-11.14,5.72-19.61,5.9-10.76.22-16.68-5.12-23.86-5.92-2.95-.33-11.7.05-15.03.22-5.3.27-11.16,1.34-16.5,1.81-.16-.52.11-1.37,0-2l1.27-1.13c20.43-2.98,40.98-6.18,61.09-10.69,15.83-4.99,12.44-24.84-2.36-28.18,1.97-8.37-8.65-9.26-12.06-12.44-1.91-1.78-5.34-10.65-6.94-13.56,27.65-7.6,52.91,14.43,48.74,43.24-1.45,10.05-8.49,15.76-14.74,22.76Z"/>
  <path class="cls-4" d="M1063.81,523.29c10.41-.62,24.37,3.72,24.27,16.21-.08,9.98-13.18,26.34-22.36,29.73-17.32,6.4-40.39-5.48-31.93-25.93,4.87-11.78,17.64-19.27,30.01-20.01Z"/>
  <path class="cls-20" d="M892,533c10.64-21.76,21.99-43.1,32.71-64.79,12.23-24.74,25.76-61.94,40.45-83.55,3.04-4.47,5.31-5.32,10.83-4.66-6.08,23.52-17.94,45.41-29,66.99-3.48,6.79-6.47,14.51-10,21,.74,5.4-5.12,14.62-10,17-3.73,6.68-8.21,13.4-12,20-2.01,3.5-13.31,24.99-15,26-.34.2-1.94-.4-2.75.19-1.37,1-.78,7.75-5.25,1.81Z"/>
  <path class="cls-17" d="M1141,536c4.34,10.45,19.74,27.4.72,33.22-3.86,1.18-7.4.08-10.09.94-1.3.42-1.36,2.29-2.36,2.87-5.99,3.43-22.4,12.93-28.25,13.57-4.44.48-11.81-2.18-12.11-7.09-.34-5.59,7.56-13.89,11.62-17.48,5.27-4.67,14.3-7.9,16.48-15.02l.58-2.14c7.41-2.85,14.59-6.25,21.55-10.22l1.87,1.36Z"/>
  <path class="cls-1" d="M965,549c-1.15-10.18-7.91-27.35-13.19-36.31-6.09-10.3-14.9-21.09-24.81-27.69,3.17-5.68,7.16-11.79,10-17,11.09,10.15,20.63,20.06,28.41,33.09,6.16,10.31,16.09,33.46,13.37,45.2-1.79,7.73-8.79,3.08-13.79,2.71Z"/>
  <path class="cls-1" d="M916,455c-2.63,5.29-5.52,10.51-7.57,16.07-14.71-4.32-28.37-7.79-43.92-7.06-7.54.35-22.98,4.35-29.51,0-.22-.15-2.19-3.77-3.03-4.44-.18-5.34,12.42-8.24,16.8-9.29,15.93-3.81,31.26-4.52,47.26-.81,6.74,1.57,12.94,5.08,19.97,5.53Z"/>
  <path class="cls-22" d="M1185,468c12.37,14.44-10.81,24.68-23,26-.59,1.58-1.41,1.57-2,0-.66.04-1.34,0-2,0-1.08,2.18-3.95,2.19-5,0-7.94-.59-24-2.35-24-13-6.3-6.69,10.75-15.82,16-11,2.21-.29,5.06-.81,7-1,9.15-.89,24.18-2.02,33-1Z"/>
  <path class="cls-18" d="M922,352c.65-.76.5-2.78,1.68-3.03,6.8-1.47,16.56-.68,22.25,3.6,4.46,3.35,4.16,5.6,5.6,10.45.49,1.65-.2,3.55,2.47,2.98-.23,1.17.19,2.76,0,4,.55,1.05.55,2.38,0,4-3.95,11.82-9.89,20.28-15,31-2.65-3.69-8.85-1.49-13.22-2.28-.77-.14-5.62-1.77-4.78-3.72.14-2.37,1.05-4.88,2.72-7.55,3.9-9.91,9.46-33.45-1.72-39.45Z"/>
  <path class="cls-4" d="M1238,470c.87,1.5,2.37,2.86,3,4,3.44,1.92,6.39,9.14,7,13-.14.23.09,3.46-.47,5.01-1.48,4.12-4.97,8.24-9.81,6.82-5.4-1.59-12.09-19.28-15.86-24.24-1.19-1.56-2.59-1.34-2.86-1.59-1.41.41-1.95-1.08-1.15-1.27,3.04-.73-4.05,6.46-5.85,2.27-2.71,3.72-8.11,3.52-10,0-.64-1.5-3.84-5.27-4-6-1.13-5.09,10.63-12.24,14-10.56,2.95,1.47,1.42,7.18,4.99,6.56-1.37-4.96,6.41-9.44,10.48-9.02,4.64.48,8.42,11.36,10.52,15.01Z"/>
  <path class="cls-5" d="M1032,468c-3.58,3.11-8.2,4.32-11.01,8.49-1.79,2.66-2.25,7.32-3.21,8.29-.73.73-3.75,1.21-5.31,2.19-1.91,1.2-9.06,7.2-10.46,6.03l-14.01-36c11.58,10.42,29.91,9.15,44,11Z"/>
  <path class="cls-5" d="M1212,474c2.14-.57,6.35-3.38,6.94-2.92.33.25-.11,1.75.06,1.92.61,1.83,1.21,2.64.09,4.52-2.01,3.37-10.71,10.64-14.07,15.01-7.77,10.1-15.01,23.02-18.12,35.37l-30.9,3.09c-1.07-.94,8.87-10.87,10.05-11.44,5.48-2.67,10.99.05,16.95-4.55,8.27-12.67,16.63-25.46,25.09-38.37l3.91-2.63Z"/>
  <path class="cls-25" d="M910,605c-21.18,16.18-50.44,17.01-73,4l73-4Z"/>
  <path class="cls-7" d="M1133,524c7.64-.54,6.09,7.4,8,12-6.03,2.57-17.98,10.18-24,11-2.49.34-7.71-.17-9.48-2.01-1.3-1.36-2.19-6.5-1.52-7.99,1.1-2.43,23.48-9.66,27-13Z"/>
  <path class="cls-10" d="M1218,529c-1.52-1.34,14.63-25.98,18.49-26.01,4.05,8.82,10.69,16.8,13.51,26.01h-32Z"/>
  <path class="cls-11" d="M1020.98,539c-2.33.51-1.6-.31-2.23-1.28-2.32-3.6-11.48-22.11-11.54-25.4-.05-2.8,7.58-11.37,10.3-11.37,3.36,0,9.79,18.75,13.25,21.58-4.47,4.62-7.86,10.33-9.78,16.48Z"/>
  <path class="cls-22" d="M1057.01,489c-1.57-.08-4.24-.12-5,1.52-1,2.17,4.44,1.49,4.98,4,.39,1.78-1.94,2.44-3.16,2.82-5.81,1.81-18.63.56-25.38.61-4.41.03-7.42,3.34-8.45-3.95,9.11-.6,18.44-.94,27.51-2,1.49-.17,3.06-.79,1.48-2-2.81.06-5.66-.15-8.49,0-4.98.27-13.51,2.44-18.02,2.08s-4.97-3-1.04-5.14c4.75-2.58,27.75-4.23,32.84-2.75,2.1.61,3.04,2.72,2.71,4.79Z"/>
  <path class="cls-11" d="M1044.99,585.01c.19,1.86-3.28.97-4.26.75-21.93-4.86-34.78-25.74-37.73-46.76,3.52,3.69,5.92,8.43,9.01,12.48,1.58,2.07,5.55,4.72,6.43,6.57,1.09,2.27,1.41,6.03,2.84,9.16,4.27,9.37,13.18,16.95,23.7,17.81Z"/>
  <path class="cls-13" d="M1285,544c16.16,1.26,20.08,24.87.25,29.75-16.84,4.14-42.78,8.05-60.25,10.25-1.69.21-5.07.49-6-1,23.56-4.3,47.22-8.63,70.74-13.14,4.11-.79,6.33-7.24,6.24-10.98-.38-15.72-15.69-12.44-26.93-9.69-26.07,7.07-52.08,13.68-78.05,19.81l-2.88,6.97c.77,2.64,1.07,4.98.88,7.03,3.07,2.14,6.74,3.14,11,3,.48-2.94,6.84-3.82,8-1,2.23-1.95,7.16-2.54,10-2,.59,2.77-1.36,1.94-3.14,2.31-5.5,1.17-17.05,3.5-22.14,2.45-10.73-2.2-10.93-16.5-1.44-20.98,18.04-5.06,36.25-10.19,54.48-14.52,8.37-1.99,32.48-8.8,39.23-8.27Z"/>
  <path class="cls-13" d="M1212,474c-3.29,5.47-6.54,11.05-10.19,16.31-3.83,5.53-14.47,21.34-18.81,24.69-.65-4.51,3.55-7.75,5.41-11.09.87-1.56.71-3.67,1.71-5.29,1.67-2.69,9.07-10.49,9.73-12.27,1.46-3.91-4.35-1.29-3.85-5.35.38-.35,7.12,2.8,8.99-2.52.85-2.44-2.19-.98-2.85-1.59-.62-.57.1-2.32-.14-2.89,2.89,1.2,7,.8,10,0Z"/>
  <path class="cls-22" d="M1023,505c-.05-1.87-.45-4.18,1.64-4.86,7.15-2.32,22.74,2.11,30.84-1.16l.51,6.02h-33Z"/>
  <path class="cls-13" d="M1145,470c-6.68.89-16,1.94-16,11-7.8-2.18-.94-6.66-1.01-9.52-.05-2.01-5.85-5.65-3.98-7.47.42-.41,9.13,2,11.53,1.99,4.52-.02,10.19-3.97,9.47,4.01Z"/>
  <path class="cls-9" d="M1191,569c.3-.19.43-1.3,1.72-1.75,28.48-5.35,56.9-15.51,85.27-20.76,4.42-.82,7.42-2.3,11.74.29,9.15,5.48,10.03,19.47-.33,24.12-23.37,4.41-46.88,8.63-70.4,12.1-.33.05-.67-.05-1,0-3.2.47-6.83,1.63-10,2-3.4-.75-1.47-3.51,1.5-4.22,22.88-3.25,46.22-6.73,69.16-10.85,8.81-1.58,16.5-3.16,14.2-13.97-1.75-8.25-12.63-6.2-18.99-4.76-18.01,4.06-35.74,8.85-53.38,14.34-4.93,1.3-9.85,2.51-14.8,3.72-3.77.92-12.65,2.72-14.7-.25Z"/>
  <path class="cls-13" d="M1241,474c.86-2.34,2.79.05,3.42,1.08.94,1.54,5.87,11.23,5.4,11.78-.33.38-1.74.02-1.82.15-3.26-3.75-4.68-8.77-7-13Z"/>
  <path class="cls-13" d="M1132,458c2.41,5.46-5.69,5.34-7.01,3.99-2.6-2.66,4.5-5.3,7.01-3.99Z"/>
  <path class="cls-13" d="M1158,494c-.18,4.19-4.82,4.19-5,0,1.63.12,3.36.02,5,0Z"/>
  <path class="cls-13" d="M1163,442c6.02,3.87-3.29,4.27-3,0,.87-.2,2.14.2,3,0Z"/>
  <path class="cls-13" d="M1129,449c1.31,4.43-5.21,4.65-4,0,1.29-.14,2.73.17,4,0Z"/>
  <path class="cls-11" d="M954,374c-2.54-1.05-.09-3.38,0-4,3.87,1.65.5,2.5,0,4Z"/>
  <path class="cls-13" d="M1129,507c.99.6,4.18-.62,1,4-.26-.99-1.71-2.24-1-4Z"/>
  <path class="cls-13" d="M1253,492v3c-.45-.32-1.66.61-2.01-.51-.98-3.12.71-2.16,2.01-2.49Z"/>
  <path class="cls-13" d="M1099,447c.24,2.13.13,2.24-2,2-.19-.31-1.54-.11-.99-1.99.96.09,2.11-.17,2.99,0Z"/>
  <path class="cls-13" d="M1116,474c.36.22,1.79-.25,2,0,.81,1-.99,2.84-1,3l-1-3Z"/>
  <rect class="cls-13" x="1176.01" y="441.01" width="1.99" height="2.99"/>
  <path class="cls-13" d="M1162,494c.61,2.97-2.55,3.13-2,0,.66-.04,1.35.07,2,0Z"/>
  <path class="cls-11" d="M1002.5,537c.65.33.65.67,0,1v-1Z"/>
  <path class="cls-9" d="M921,399c-.2.06-.8.06-1,0-9.42-12.17-8.86-31.11-1-44,.65-.79,1.93-1.75,3-3,9.71-3.77,8.49,16.86,8.04,22.54-.37,4.68-4.64,23.11-9.04,24.46Z"/>
  <path class="cls-18" d="M920,399c-3.6-1.14-6.35-10.15-6.9-13.6-1.67-10.54-.91-22.23,5.9-30.4-6.78,13.64-7.17,30.85,1,44Z"/>
  <path class="cls-13" d="M1365,446c1.15-.97,1.69-.43,1,1,1.56,6.64,2.73,13.84,3.42,20.85.06.65-.14,1.34-.38,2.04s-.63,1.43-1.04,2.11c.3,2.15-.4,4.99,0,7-2.3.31-1.96-1.44-2.65-2.8-4.17-8.19-17.59-21.49-25.35-27.2,5.61-5.91,17.33-1.88,25-3Z"/>
  <path class="cls-5" d="M1406.85,369.15c2.43,4.04-1.15,5.36-4.46,5.73-4.47.5-16.31.48-20.89.11-.98-.08-5.34-.72-5.57-1.57-.2-3.06.17-5.74,3.59-6.38,3.13-.59,26.29.39,27.33,2.12Z"/>
  <path class="cls-5" d="M1379.24,394.76c-1.18-1.18-1.29-4.1-1.24-5.75,4.54.3,25.03-4.04,25.95,1.61.96,5.96-21.93,6.92-24.71,4.14Z"/>
  <path class="cls-16" d="M1366,447c8.31,5.54,11.27,17.45,3,25h-1c-.9-6.37-2-13.13-2.72-19.8-.17-1.6-1.15-4.16.72-5.2Z"/>
  <path class="cls-19" d="M1365,446c.13-.02-.07-1.53,1.98-.99,2.78,5.84,7.22,7.47,7.82,14.78.26,3.2-1.71,11.45-5.8,12.22,7.19-11,4.41-16.12-3-25-.31-.37-.54-.79-1-1Z"/>
  <path class="cls-7" d="M1145.5,311c.65.33.65.67,0,1v-1Z"/>
  <path class="cls-2" d="M367.99,648.01c1.59,1.59-1.4,4.58-2.99,2.99s1.4-4.58,2.99-2.99Z"/>
  <rect class="cls-2" x="388.01" y="658.01" width="1.99" height="2.99"/>
  <path class="cls-11" d="M439.99,637.01c1.09,1.09-.9,3.08-1.99,1.99s.9-3.08,1.99-1.99Z"/>
  <path class="cls-11" d="M442.99,615.01c1.09,1.09-.9,3.08-1.99,1.99s.9-3.08,1.99-1.99Z"/>
  <path class="cls-2" d="M373.99,633.01c1.09,1.09-.9,3.08-1.99,1.99s.9-3.08,1.99-1.99Z"/>
  <path class="cls-2" d="M377.99,659.01c1.09,1.09-.9,3.08-1.99,1.99s.9-3.08,1.99-1.99Z"/>
  <path class="cls-19" d="M1030,444c-.17.08-.51,1.34-1.67,1.78-9.38,3.63-22.92,4.5-24.35-8.26-2.5-22.25,35.39-21.26,49.01-14.51.6.88-5.42,7.65-6.6,8.88-5.42,5.63-9.6,8.77-16.4,12.1l-.13-1.02c5.54-2.87,10.31-7.08,14.13-11.98-1.07-2.75.67-3.54,3-2,.19-1.5.84-2.95,1.95-4.36-6.46-5.55-32.82-3.74-39.38,1.78-3.57,3.01-5.64,15.91,1.43,13.57-1.57-2.48.38-4.29,3-3,.66-.85,1.33-1.18,2-1-.62-4.98,16.46-10.78,18.44-7.77,1.86,2.83-8.64,10.8-11.44,8.77-2.56,2.13-5.23,4.46-8,7,.87.28.86.62,0,1l-.1.83c5.22-.51,10.26-1.12,15.1-1.83Z"/>
  <path class="cls-8" d="M1191,569l12.22-1.28c24.61-5.05,51.82-16.25,76.53-19.46,9.7-1.26,16.07,1.28,15.27,12.22-.51,7.05-4.56,8.83-10.78,10.27-22.19,5.13-47.63,7.53-70.41,11.59-1.79.32-6.58-.19-5.83,2.66-2.55.3-5.66.9-8,1-4.29.11-7.95-.89-11-3-4.13-4.14-3.65-8.72-.05-13.34.8-1.03,1.79-.49,2.05-.66Z"/>
  <path class="cls-9" d="M1200,586c-5.26.22-7.18.83-11-3,3.34,2.97,7.89.94,11,3Z"/>
  <path class="cls-8" d="M926.83,355.18c.28.44,2.27,9.73,2.23,10.25-.06.73-1.23-1.12-1.05,5.06.1,3.34-.54,10.03-1.16,12.73-1.02,4.39-2.1,10.28-7.22,8.83-.97-.27-1.26-3.72-1.46-4.7-2.11-10.31-2.14-21.5,3.26-30.49.56-.93.5-2.71.63-2.83.44-.41,4.4.55,4.78,1.15Z"/>
  <path class="cls-3" d="M1011,440c-6.3,3.32-5.05-7.59-2.74-11.8,4.2-7.63,32.51-8.53,40.56-4.44-.07,1.69-.67,3.44-1.82,5.24-1.09.97-2.39,1.45-3,2-6.82,8.82-17.76,16.46-29,14v-1c3-2.54,5.67-4.88,8-7l11-7.99c-6.47.33-12.77,3.42-18,6.99l-2,1c-.48.36-2.02,2.12-3,3Z"/>
  <path class="cls-9" d="M1011,440c-1.36,1.22-1.98,4.64-3.9,1.4-3.7-6.27-.72-15.03,6.09-17.7,11.66-4.57,25.94-3.58,37.81-.69.62,3.24-1.97,4.17-4,5.99-1.56-.85.76-3.74-.06-4.93-.22-.32-6.65-1.97-7.58-2.01-5.32-.24-16.55.48-21.76,1.99-1.2.35-7.28,2.22-7.62,2.44-2.06,1.35-5.69,14.7,1.02,13.52Z"/>
  <path class="cls-9" d="M1030,444c-4.52,1.98-14.27,3.69-18.99,1.99-.2-1.77,2.8-.92,3.99-.99,15.09-.87,18.56-4.6,29-14-1.54,4.33-10.15,11.31-14,13Z"/>
  <path class="cls-9" d="M1023,437l1,.98-9,6.02c.98-3.48,4.98-5.28,8-7Z"/>
  <path class="cls-9" d="M1016,436c-.59.41-1.46.59-2,1l1.5-1.98.5.98Z"/>
</svg>